<?xml version="1.0" encoding="utf-8"?><svg viewBox="0 0 502.66 502.66" xmlns="http://www.w3.org/2000/svg" xmlns:xlink="http://www.w3.org/1999/xlink"><style>:root>svg{display:none}:root>svg:target{display:block}</style><svg viewBox="0 0 502.664 502.664" id="icon" xmlns="http://www.w3.org/2000/svg"><path d="M153.821 358.226 0 274.337v-46.463l153.821-83.414v54.574L46.636 250.523l107.185 53.431v54.272zm26.273 29.358L282.103 115.08h32.227L212.084 387.584h-31.99zm168.749-29.358v-54.272l107.164-52.999-107.164-52.59v-53.927l153.821 83.522v46.183l-153.821 84.083z" fill="#010002"/></svg><svg fill="none" viewBox="0 0 63 52" id="logo" xmlns="http://www.w3.org/2000/svg"><path d="M40.377 45.878H5.855c-2.21 0-4.01-1.9-4.01-4.238V12.445c0-2.337 1.8-4.238 4.01-4.238.51 0 .923-.437.923-.975 0-.54-.414-.976-.923-.976C2.626 6.256 0 9.032 0 12.445V41.64c0 3.413 2.626 6.19 5.855 6.19h34.522c.51 0 .923-.438.923-.976 0-.539-.413-.976-.923-.976zM57.145 6.256H26.568c-.51 0-.923.437-.923.976 0 .538.413.975.923.975h30.577c2.21 0 4.01 1.901 4.01 4.238V41.64c0 2.337-1.8 4.238-4.01 4.238h-.986c-.51 0-.923.437-.923.976 0 .538.413.975.923.975h.986c3.229 0 5.855-2.776 5.855-6.189V12.445c0-3.413-2.626-6.189-5.855-6.189zM9.8 8.207c2.754 0 4.995 2.369 4.995 5.28 0 .54.414.976.923.976.51 0 .923-.436.923-.975 0-2.912 2.241-5.28 4.995-5.28.51 0 .923-.438.923-.976 0-.54-.413-.976-.923-.976-2.754 0-4.995-2.369-4.995-5.28 0-.54-.413-.976-.923-.976s-.923.437-.923.976c0 2.911-2.24 5.28-4.995 5.28-.51 0-.923.437-.923.976 0 .538.413.975.923.975zM15.718 4.6a7.102 7.102 0 0 0 2.49 2.632 7.102 7.102 0 0 0-2.49 2.631 7.102 7.102 0 0 0-2.49-2.631 7.103 7.103 0 0 0 2.49-2.632zm36.496 41.278c-1.667 0-3.023-1.433-3.023-3.195 0-.539-.413-.976-.923-.976s-.923.437-.923.976c0 1.762-1.356 3.195-3.022 3.195-.51 0-.923.437-.923.976 0 .539.413.975.923.975 1.666 0 3.022 1.434 3.022 3.196 0 .538.414.975.923.975.51 0 .923-.437.923-.975 0-1.762 1.356-3.196 3.023-3.196.51 0 .922-.436.922-.975 0-.539-.413-.976-.922-.976zm-3.946 2.135a5.06 5.06 0 0 0-1.096-1.16c.42-.322.791-.713 1.096-1.158a5.04 5.04 0 0 0 1.097 1.159 5.062 5.062 0 0 0-1.097 1.159z" fill="#C5AC2D"/><path d="M13.94 17.726c-.51 0-.923.436-.923.975v16.67c0 .474.324.88.767.96.064.012.157.03 1.868.03.831 0 2.044-.005 3.82-.015.509-.003.92-.443.917-.981-.003-.537-.415-.97-.923-.97h-.005c-1.4.008-3.449.016-4.598.013V18.701c0-.539-.414-.975-.923-.975zm25.21 18.456a.89.89 0 0 0 1.287-.236l5.198-7.801 5.192 7.8c.18.27.465.415.755.415a.884.884 0 0 0 .53-.178c.417-.31.517-.919.224-1.36l-5.571-8.371 4.79-7.188c.293-.44.193-1.05-.223-1.36a.892.892 0 0 0-1.286.236l-4.41 6.616-4.402-6.615a.891.891 0 0 0-1.286-.237c-.417.31-.517.919-.224 1.36l4.783 7.187-5.58 8.372c-.293.44-.193 1.05.224 1.36zm-13.17-.855a5.99 5.99 0 0 0 3.404 1.033h.01a6.342 6.342 0 0 0 3.013-.735c2.278-1.213 3.482-3.1 3.482-5.456V18.7c0-.539-.413-.975-.923-.975s-.922.436-.922.975v11.47c0 1.615-.807 2.83-2.467 3.713a4.59 4.59 0 0 1-2.183.527h-.008a4.244 4.244 0 0 1-2.413-.727c-1.437-.97-2.05-2.017-2.05-3.501V18.7c0-.539-.413-.975-.923-.975s-.923.436-.923.975v11.48c0 2.144.95 3.827 2.902 5.146z" fill="#C5AC2D"/></svg></svg>