<svg width="136" height="60" viewBox="0 0 136 60" fill="none" xmlns="http://www.w3.org/2000/svg">
<g clip-path="url(#clip0)">
<path d="M16.579 18.1051L16.5264 10.0525L12.6843 16.5262H10.0527L6.2106 10.3156V18.1051H0.789551V0.420898H5.68429L11.4211 9.84195L17.0527 0.420898H21.9474L22.0001 18.1051H16.579Z" fill="#4DF8AA"/>
<path d="M42.7895 0.420898L35.6842 13.7367C34.8421 15.3156 33.7895 16.5262 32.579 17.3683C31.3684 18.2104 30 18.6314 28.5263 18.6314C27.4211 18.6314 26.2632 18.4209 25.1053 17.9472L26.4737 13.6314C27.2105 13.842 27.8421 13.9472 28.3158 13.9472C28.7369 13.9472 29.1053 13.8946 29.4211 13.7367C29.7369 13.5788 30.0526 13.3156 30.3158 12.9998L23.6316 0.420898H29.9474L33.4211 7.89458L37.0526 0.420898H42.7895Z" fill="#4DF8AA"/>
<path d="M47.6318 17.3159C46.1581 16.5264 44.9475 15.4212 44.1054 14.0527C43.2633 12.6317 42.8423 11.0527 42.8423 9.26326C42.8423 7.47379 43.2633 5.89484 44.1054 4.47379C44.9475 3.05273 46.1054 1.94747 47.6318 1.21063C49.1054 0.421155 50.7897 0.0527344 52.6844 0.0527344C54.4212 0.0527344 55.9475 0.368524 57.2633 0.947471C58.6318 1.57905 59.737 2.42116 60.5791 3.57905L56.7897 6.94747C55.6844 5.57905 54.4212 4.89484 52.9475 4.89484C51.6844 4.89484 50.6844 5.31589 49.9475 6.10537C49.2107 6.89484 48.7897 8.0001 48.7897 9.31589C48.7897 10.6843 49.1581 11.7369 49.9475 12.5264C50.6844 13.3159 51.6844 13.7369 52.9475 13.7369C54.4212 13.7369 55.737 13.0527 56.7897 11.6843L60.5791 15.0527C59.6844 16.2106 58.5791 17.0527 57.2633 17.6843C55.8949 18.3159 54.3686 18.5791 52.6844 18.5791C50.8423 18.5264 49.1581 18.1054 47.6318 17.3159Z" fill="#4DF8AA"/>
<path d="M65.8948 17.3158C64.3685 16.5263 63.2106 15.4211 62.3159 14C61.4738 12.5789 61.0527 11 61.0527 9.26316C61.0527 7.47368 61.4738 5.89474 62.3159 4.52632C63.158 3.10526 64.3685 2 65.8948 1.21053C67.4212 0.421053 69.1054 0 71.0001 0C72.8948 0 74.6317 0.421053 76.1054 1.21053C77.6317 2 78.7896 3.10526 79.6843 4.52632C80.5264 5.94737 80.9475 7.52632 80.9475 9.26316C80.9475 11.0526 80.5264 12.6316 79.6843 14C78.8422 15.4211 77.6317 16.5263 76.1054 17.3158C74.5791 18.1053 72.8948 18.5263 71.0001 18.5263C69.1054 18.5263 67.4212 18.1053 65.8948 17.3158ZM73.0527 13.1579C73.6317 12.7895 74.1054 12.2632 74.4738 11.6316C74.8422 10.9474 75.0001 10.2105 75.0001 9.31579C75.0001 8.42105 74.8422 7.63158 74.4738 7C74.1054 6.31579 73.6317 5.8421 73.0527 5.47368C72.4738 5.10526 71.7896 4.94737 71.0527 4.94737C70.3159 4.94737 69.6317 5.10526 69.0527 5.47368C68.4738 5.8421 68.0001 6.36842 67.6317 7C67.2633 7.68421 67.1054 8.42105 67.1054 9.31579C67.1054 10.2105 67.2633 11 67.6317 11.6316C68.0001 12.3158 68.4738 12.7895 69.0527 13.1579C69.6317 13.5263 70.3159 13.6842 71.0527 13.6842C71.7896 13.6842 72.4212 13.5263 73.0527 13.1579Z" fill="#4DF8AA"/>
<path d="M95.9474 1.21037C97.158 1.73669 98.1053 2.52616 98.7369 3.52616C99.3685 4.52616 99.7369 5.73669 99.7369 7.05248C99.7369 8.4209 99.4211 9.57879 98.7369 10.5788C98.0527 11.5788 97.158 12.3683 95.9474 12.8946C94.7369 13.4209 93.3158 13.6841 91.6843 13.6841H89.158V18.0525H83.158V0.420898H91.6843C93.3158 0.420898 94.7369 0.684056 95.9474 1.21037ZM93.1053 8.63142C93.5264 8.263 93.7369 7.73669 93.7369 7.10511C93.7369 6.47353 93.5264 5.94721 93.1053 5.57879C92.6843 5.21037 92.1053 5.05248 91.2632 5.05248H89.1053V9.21037H91.2632C92.1053 9.15774 92.6843 8.99985 93.1053 8.63142Z" fill="#4DF8AA"/>
<path d="M12.3684 36.4741H17.5263V43.9478C16.4737 44.6847 15.2632 45.211 13.8947 45.632C12.5263 46.0005 11.1579 46.211 9.84211 46.211C7.94737 46.211 6.26316 45.8426 4.78947 45.0531C3.26316 44.211 2.10526 43.1583 1.26316 41.7373C0.421053 40.3162 0 38.7373 0 36.9478C0 35.1584 0.421053 33.5794 1.26316 32.1584C2.10526 30.7373 3.31579 29.632 4.84211 28.8952C6.36842 28.1057 8.10526 27.7373 10 27.7373C11.7368 27.7373 13.2632 28.0531 14.6842 28.632C16.0526 29.211 17.2105 30.0531 18.1053 31.1584L14.2105 34.4741C13.1053 33.1584 11.7895 32.5268 10.2632 32.5268C8.94737 32.5268 7.89474 32.9478 7.10526 33.7373C6.31579 34.5268 5.94737 35.632 5.94737 36.9478C5.94737 38.2636 6.31579 39.3689 7.10526 40.1584C7.89474 40.9478 8.89474 41.3689 10.1579 41.3689C10.8947 41.3689 11.6316 41.211 12.3158 40.9478V36.4741H12.3684Z" fill="#02AC8F"/>
<path d="M24.2632 45.0004C22.7369 44.2109 21.579 43.1056 20.6843 41.6846C19.8422 40.2635 19.4211 38.6846 19.4211 36.9477C19.4211 35.2109 19.8422 33.5793 20.6843 32.2109C21.5264 30.7898 22.7369 29.6846 24.2632 28.8951C25.7896 28.1056 27.4738 27.6846 29.3685 27.6846C31.2632 27.6846 33.0001 28.1056 34.4738 28.8951C36.0001 29.6846 37.158 30.7898 38.0527 32.2109C38.8948 33.6319 39.3159 35.2109 39.3159 36.9477C39.3159 38.6846 38.8948 40.3161 38.0527 41.6846C37.2106 43.1056 36.0001 44.2109 34.4738 45.0004C32.9475 45.7898 31.2632 46.2109 29.3685 46.2109C27.4738 46.2109 25.7369 45.7898 24.2632 45.0004ZM31.3685 40.8425C31.9475 40.474 32.4211 39.9477 32.7896 39.3161C33.158 38.6846 33.3159 37.8951 33.3159 37.0004C33.3159 36.1056 33.158 35.3162 32.7896 34.6846C32.4211 34.0004 31.9475 33.5267 31.3685 33.1583C30.7896 32.7898 30.1054 32.6319 29.3685 32.6319C28.6317 32.6319 27.9475 32.7898 27.3685 33.1583C26.7896 33.5267 26.3159 34.053 25.9475 34.6846C25.579 35.3688 25.4211 36.1056 25.4211 37.0004C25.4211 37.8951 25.579 38.6846 25.9475 39.3161C26.3159 40.0004 26.7896 40.474 27.3685 40.8425C27.9475 41.2109 28.6317 41.3688 29.3685 41.3688C30.1054 41.3688 30.7896 41.2109 31.3685 40.8425Z" fill="#02AC8F"/>
<path d="M45.6841 45.0004C44.1578 44.2109 42.9999 43.1056 42.1052 41.6846C41.2631 40.2635 40.842 38.6846 40.842 36.9477C40.842 35.2109 41.2631 33.5793 42.1052 32.2109C42.9473 30.7898 44.1578 29.6846 45.6841 28.8951C47.2105 28.1056 48.8947 27.6846 50.7894 27.6846C52.6841 27.6846 54.421 28.1056 55.8947 28.8951C57.421 29.6846 58.5789 30.7898 59.4736 32.2109C60.3157 33.6319 60.7368 35.2109 60.7368 36.9477C60.7368 38.6846 60.3157 40.3161 59.4736 41.6846C58.6315 43.1056 57.421 44.2109 55.8947 45.0004C54.3684 45.7898 52.6841 46.2109 50.7894 46.2109C48.8947 46.2109 47.1578 45.7898 45.6841 45.0004ZM52.7894 40.8425C53.3684 40.474 53.842 39.9477 54.2105 39.3161C54.5789 38.6846 54.7368 37.8951 54.7368 37.0004C54.7368 36.1056 54.5789 35.3162 54.2105 34.6846C53.842 34.0004 53.3684 33.5267 52.7894 33.1583C52.2105 32.7898 51.5263 32.6319 50.7894 32.6319C50.0526 32.6319 49.3684 32.7898 48.7894 33.1583C48.2105 33.5267 47.7368 34.053 47.3684 34.6846C46.9999 35.3688 46.842 36.1056 46.842 37.0004C46.842 37.8951 46.9999 38.6846 47.3684 39.3161C47.7368 40.0004 48.2105 40.474 48.7894 40.8425C49.3684 41.2109 50.0526 41.3688 50.7894 41.3688C51.5263 41.3688 52.2105 41.2109 52.7894 40.8425Z" fill="#02AC8F"/>
<path d="M62.9473 28.1055H71.6841C73.6315 28.1055 75.3683 28.4739 76.8946 29.1581C78.421 29.8949 79.5788 30.8949 80.421 32.2107C81.2631 33.5265 81.6841 35.1055 81.6841 36.8949C81.6841 38.6844 81.2631 40.2634 80.421 41.5791C79.5788 42.8949 78.421 43.9476 76.8946 44.6318C75.3683 45.3686 73.6315 45.6844 71.6841 45.6844H62.9473V28.1055ZM71.4209 41.1581C72.6841 41.1581 73.7367 40.7897 74.4736 40.0528C75.2631 39.316 75.6315 38.2634 75.6315 36.9476C75.6315 35.6318 75.2631 34.5792 74.4736 33.8423C73.6841 33.1055 72.6841 32.737 71.4209 32.737H68.8946V41.1055H71.4209V41.1581Z" fill="#02AC8F"/>
<path d="M100.369 38.2107C100.947 38.9476 101.211 39.8423 101.211 40.8949C101.211 42.4213 100.579 43.6318 99.3159 44.4739C98.0527 45.316 96.158 45.737 93.7369 45.737H83.7896V28.1055H93.2632C95.6317 28.1055 97.4211 28.5265 98.6317 29.3686C99.8422 30.2107 100.421 31.316 100.421 32.737C100.421 33.5791 100.211 34.316 99.7896 34.9476C99.3685 35.5792 98.7896 36.1581 97.9475 36.5265C99.0001 36.9476 99.7896 37.4739 100.369 38.2107ZM89.6843 32.2634V34.8949H92.4738C93.7896 34.8949 94.4211 34.4739 94.4211 33.5792C94.4211 32.6844 93.7896 32.2634 92.4738 32.2634H89.6843ZM95.2106 40.2107C95.2106 39.2634 94.579 38.8423 93.2632 38.8423H89.6843V41.6318H93.2632C94.579 41.6318 95.2106 41.1581 95.2106 40.2107Z" fill="#02AC8F"/>
<path d="M113.474 39.3686V45.7897H107.526V39.316L100.842 28.1055H107.158L110.789 34.2107L114.421 28.1055H120.158L113.474 39.3686Z" fill="#02AC8F"/>
<path d="M135.579 41.316V45.7897H120.895V28.1055H135.263V32.5792H126.737V34.6318H134.211V38.9476H126.737V41.2634H135.579V41.316Z" fill="#02AC8F"/>
<path d="M40.0527 59.7369C33.737 59.7369 28.158 56.3685 26.6843 51.6843L31.737 50.158C32.3685 52.2633 35.737 54.5264 40.0527 54.5264C44.2106 54.5264 47.5791 52.2106 48.3159 50.0527L53.2633 51.7896C51.6843 56.4212 46.1054 59.7369 40.0527 59.7369Z" fill="#02AC8F"/>
</g>
<defs>
<clipPath id="clip0">
<rect width="135.789" height="60" fill="white"/>
</clipPath>
</defs>
</svg>
