<?xml version="1.0" encoding="utf-8"?>
<!-- Generator: Adobe Illustrator 22.1.0, SVG Export Plug-In . SVG Version: 6.00 Build 0)  -->
<svg version="1.1" id="Слой_1" xmlns="http://www.w3.org/2000/svg" xmlns:xlink="http://www.w3.org/1999/xlink" x="0px" y="0px"
	 viewBox="0 0 24.3 17.5" style="enable-background:new 0 0 24.3 17.5;" xml:space="preserve">
<style type="text/css">
	.st0{enable-background:new    ;}
	.st1{fill:#FFFFFF;}
</style>
<g class="st0">
	<path class="st1" d="M0,9.9c0-1.8,0.3-3.3,0.9-4.6s1.3-2.3,2.1-3c0.8-0.8,1.8-1.3,2.7-1.7c1-0.4,1.9-0.5,2.7-0.5
		c0.9,0,1.5,0.2,1.9,0.7c0.4,0.5,0.6,0.9,0.6,1.4c0,0.7-0.2,1.2-0.6,1.6S9.1,4.5,8,4.7c-0.8,0.2-1.5,0.5-2,1
		C5.5,6.2,5.2,6.9,5.2,7.9c0.4-0.2,1-0.3,1.7-0.3c0.7,0,1.3,0.1,1.9,0.4c0.5,0.3,1,0.6,1.3,1s0.6,0.9,0.8,1.5s0.3,1.2,0.3,1.8
		c0,0.7-0.1,1.4-0.4,2s-0.6,1.2-1.1,1.7c-0.5,0.5-1,0.9-1.7,1.1c-0.6,0.3-1.3,0.4-2.1,0.4c-0.7,0-1.4-0.1-2.1-0.4
		c-0.7-0.3-1.3-0.7-1.9-1.3c-0.6-0.6-1-1.4-1.3-2.4C0.2,12.5,0,11.3,0,9.9z M13.3,9.9c0-1.8,0.3-3.3,0.9-4.6c0.6-1.3,1.3-2.3,2.1-3
		C17.1,1.5,18,0.9,19,0.6c1-0.4,1.9-0.5,2.7-0.5c0.9,0,1.5,0.2,1.9,0.7c0.4,0.5,0.6,0.9,0.6,1.4c0,0.7-0.2,1.2-0.6,1.6
		c-0.4,0.4-1.2,0.7-2.2,1c-0.8,0.2-1.5,0.5-2,1c-0.5,0.5-0.8,1.2-0.8,2.2c0.4-0.2,1-0.3,1.7-0.3c0.7,0,1.3,0.1,1.9,0.4
		c0.5,0.3,1,0.6,1.3,1c0.3,0.4,0.6,0.9,0.8,1.5c0.2,0.6,0.3,1.2,0.3,1.8c0,0.7-0.1,1.4-0.4,2c-0.3,0.6-0.6,1.2-1.1,1.7
		c-0.5,0.5-1,0.9-1.7,1.1c-0.6,0.3-1.3,0.4-2.1,0.4c-0.7,0-1.4-0.1-2.1-0.4c-0.7-0.3-1.3-0.7-1.9-1.3c-0.6-0.6-1-1.4-1.3-2.4
		C13.4,12.5,13.3,11.3,13.3,9.9z"/>
</g>
</svg>
