<?xml version="1.0" encoding="utf-8"?>
<!-- Generator: Adobe Illustrator 22.1.0, SVG Export Plug-In . SVG Version: 6.00 Build 0)  -->
<svg version="1.1" id="Слой_1" xmlns="http://www.w3.org/2000/svg" xmlns:xlink="http://www.w3.org/1999/xlink" x="0px" y="0px"
	 viewBox="0 0 186 48" style="enable-background:new 0 0 186 48;" xml:space="preserve">
<style type="text/css">
	.st0{enable-background:new    ;}
	.st1{fill:#FDE428;}
	.st2{fill:#FFFFFF;}
</style>
<g class="st0">
	<path class="st1" d="M9.1,32.8C6.5,31.4,4.5,29.5,3,27s-2.2-5.3-2.2-8.4c0-3.1,0.7-5.9,2.2-8.4s3.5-4.4,6.1-5.8
		c2.6-1.4,5.5-2.1,8.8-2.1c2.7,0,5.2,0.5,7.4,1.4c2.2,1,4.1,2.3,5.6,4.1l-4.7,4.3c-2.1-2.5-4.8-3.7-7.9-3.7c-2,0-3.7,0.4-5.2,1.3
		c-1.5,0.9-2.7,2-3.6,3.6s-1.3,3.3-1.3,5.2c0,2,0.4,3.7,1.3,5.2c0.9,1.5,2,2.7,3.6,3.6c1.5,0.9,3.3,1.3,5.2,1.3
		c3.1,0,5.8-1.2,7.9-3.7l4.7,4.3c-1.5,1.8-3.4,3.2-5.6,4.2c-2.2,1-4.7,1.4-7.4,1.4C14.6,34.9,11.7,34.2,9.1,32.8z"/>
	<path class="st1" d="M39,33.1c-2-1.1-3.6-2.5-4.7-4.4c-1.1-1.9-1.7-4-1.7-6.4c0-2.4,0.6-4.5,1.7-6.4c1.1-1.9,2.7-3.4,4.7-4.4
		c2-1.1,4.3-1.6,6.9-1.6c2.5,0,4.8,0.5,6.8,1.6c2,1.1,3.6,2.5,4.7,4.4c1.1,1.9,1.7,4,1.7,6.4c0,2.4-0.6,4.5-1.7,6.4
		c-1.1,1.9-2.7,3.4-4.7,4.4c-2,1.1-4.3,1.6-6.8,1.6C43.3,34.7,41.1,34.2,39,33.1z M50.3,27.1c1.2-1.2,1.7-2.8,1.7-4.9
		c0-2-0.6-3.7-1.7-4.9c-1.2-1.2-2.6-1.8-4.4-1.8s-3.3,0.6-4.5,1.8s-1.8,2.8-1.8,4.9c0,2,0.6,3.7,1.8,4.9s2.7,1.8,4.5,1.8
		S49.2,28.3,50.3,27.1z"/>
	<path class="st1" d="M88.2,10.1v24.2h-6.7v-2.9c-0.9,1-2,1.9-3.3,2.4c-1.3,0.6-2.7,0.8-4.2,0.8c-3.2,0-5.7-0.9-7.6-2.7
		c-1.9-1.8-2.8-4.5-2.8-8.1V10.1h7v12.6c0,3.9,1.6,5.8,4.9,5.8c1.7,0,3-0.5,4-1.6c1-1.1,1.5-2.7,1.5-4.9v-12H88.2z"/>
	<path class="st1" d="M116.7,12.5c1.8,1.8,2.8,4.5,2.8,8v13.9h-7V21.6c0-1.9-0.4-3.4-1.3-4.3c-0.8-0.9-2.1-1.4-3.6-1.4
		c-1.8,0-3.2,0.5-4.2,1.6c-1.1,1.1-1.6,2.7-1.6,4.9v12h-7V10.1h6.7V13c0.9-1,2.1-1.8,3.5-2.4c1.4-0.6,2.9-0.8,4.5-0.8
		C112.5,9.8,114.9,10.7,116.7,12.5z"/>
	<path class="st1" d="M128.1,34c-1.9-0.5-3.4-1.1-4.6-1.9l2.3-5c1.1,0.7,2.4,1.3,3.9,1.7c1.5,0.4,3,0.7,4.5,0.7c3,0,4.5-0.7,4.5-2.2
		c0-0.7-0.4-1.2-1.2-1.5c-0.8-0.3-2.1-0.6-3.7-0.8c-2-0.3-3.6-0.6-4.9-1c-1.3-0.4-2.4-1.1-3.4-2.1c-0.9-1-1.4-2.4-1.4-4.2
		c0-1.5,0.4-2.9,1.3-4.1c0.9-1.2,2.2-2.1,3.9-2.8c1.7-0.7,3.7-1,6-1c1.7,0,3.4,0.2,5.1,0.6c1.7,0.4,3.1,0.9,4.2,1.6l-2.3,5
		c-2.1-1.2-4.5-1.8-7-1.8c-1.5,0-2.6,0.2-3.4,0.6c-0.8,0.4-1.1,1-1.1,1.6c0,0.8,0.4,1.3,1.2,1.6c0.8,0.3,2.1,0.6,3.9,0.9
		c2,0.3,3.6,0.7,4.9,1.1c1.3,0.4,2.4,1.1,3.3,2c0.9,1,1.4,2.4,1.4,4.1c0,1.5-0.5,2.8-1.4,4s-2.2,2.1-3.9,2.7c-1.7,0.6-3.8,1-6.1,1
		C132,34.7,130,34.5,128.1,34z"/>
	<path class="st1" d="M173.3,24.2H155c0.3,1.5,1.1,2.7,2.3,3.6c1.2,0.9,2.8,1.3,4.6,1.3c1.3,0,2.4-0.2,3.4-0.6c1-0.4,1.9-1,2.7-1.8
		l3.7,4.1c-2.3,2.6-5.6,3.9-10,3.9c-2.7,0-5.1-0.5-7.2-1.6c-2.1-1.1-3.7-2.5-4.9-4.4s-1.7-4-1.7-6.4c0-2.4,0.6-4.5,1.7-6.4
		c1.1-1.9,2.7-3.4,4.6-4.5c2-1.1,4.2-1.6,6.6-1.6c2.4,0,4.5,0.5,6.4,1.5c1.9,1,3.4,2.5,4.5,4.4c1.1,1.9,1.6,4.1,1.6,6.6
		C173.5,22.4,173.4,23.1,173.3,24.2z M156.9,16.4c-1.1,0.9-1.7,2.1-2,3.7h11.9c-0.2-1.5-0.9-2.8-2-3.7c-1.1-0.9-2.4-1.4-4-1.4
		C159.3,15.1,158,15.5,156.9,16.4z"/>
	<path class="st1" d="M178.1,1h7v33.4h-7V1z"/>
</g>
<g class="st0">
	<path class="st2" d="M6,47.6c-0.7-0.4-1.2-0.9-1.6-1.6c-0.4-0.7-0.6-1.4-0.6-2.2c0-0.8,0.2-1.6,0.6-2.2S5.3,40.4,6,40
		c0.7-0.4,1.5-0.6,2.4-0.6s1.7,0.2,2.4,0.6c0.7,0.4,1.2,0.9,1.6,1.6c0.4,0.7,0.6,1.4,0.6,2.2c0,0.8-0.2,1.6-0.6,2.2
		c-0.4,0.7-0.9,1.2-1.6,1.6s-1.5,0.6-2.4,0.6S6.7,48,6,47.6z M9.7,46.1c0.4-0.2,0.7-0.5,0.9-1c0.2-0.4,0.3-0.9,0.3-1.4
		c0-0.5-0.1-1-0.3-1.4s-0.5-0.7-0.9-1c-0.4-0.2-0.8-0.3-1.3-0.3s-0.9,0.1-1.3,0.3c-0.4,0.2-0.7,0.5-0.9,1s-0.3,0.9-0.3,1.4
		c0,0.5,0.1,1,0.3,1.4c0.2,0.4,0.5,0.7,0.9,1c0.4,0.2,0.8,0.3,1.3,0.3S9.3,46.4,9.7,46.1z"/>
	<path class="st2" d="M30.5,39.6L27.7,48h-2.1l-1.8-5.7L21.9,48h-2.1L17,39.6h2l1.9,5.9l2-5.9h1.8l1.9,6l2-6H30.5z"/>
	<path class="st2" d="M42.9,39.6V48h-1.6l-4.2-5.1V48h-1.9v-8.4h1.6l4.2,5.1v-5.1H42.9z"/>
	<path class="st2" d="M59.5,45v3h-1.9v-3l-3.3-5.4h2.1l2.2,3.7l2.2-3.7h1.9L59.5,45z"/>
	<path class="st2" d="M68.5,47.6c-0.7-0.4-1.2-0.9-1.6-1.6c-0.4-0.7-0.6-1.4-0.6-2.2c0-0.8,0.2-1.6,0.6-2.2s0.9-1.2,1.6-1.6
		c0.7-0.4,1.5-0.6,2.4-0.6s1.7,0.2,2.4,0.6c0.7,0.4,1.2,0.9,1.6,1.6c0.4,0.7,0.6,1.4,0.6,2.2c0,0.8-0.2,1.6-0.6,2.2
		c-0.4,0.7-0.9,1.2-1.6,1.6s-1.5,0.6-2.4,0.6S69.2,48,68.5,47.6z M72.2,46.1c0.4-0.2,0.7-0.5,0.9-1c0.2-0.4,0.3-0.9,0.3-1.4
		c0-0.5-0.1-1-0.3-1.4s-0.5-0.7-0.9-1c-0.4-0.2-0.8-0.3-1.3-0.3s-0.9,0.1-1.3,0.3c-0.4,0.2-0.7,0.5-0.9,1s-0.3,0.9-0.3,1.4
		c0,0.5,0.1,1,0.3,1.4c0.2,0.4,0.5,0.7,0.9,1c0.4,0.2,0.8,0.3,1.3,0.3S71.8,46.4,72.2,46.1z"/>
	<path class="st2" d="M81.5,47.1c-0.7-0.7-1-1.6-1-2.8v-4.7h1.9v4.6c0,1.5,0.6,2.3,1.9,2.3c0.6,0,1.1-0.2,1.4-0.5
		c0.3-0.4,0.5-0.9,0.5-1.7v-4.6h1.9v4.7c0,1.2-0.3,2.2-1,2.8s-1.6,1-2.8,1S82.1,47.8,81.5,47.1z"/>
	<path class="st2" d="M98.9,48l-1.6-2.3h-0.1h-1.7V48h-1.9v-8.4h3.6c0.7,0,1.4,0.1,1.9,0.4c0.5,0.2,1,0.6,1.3,1.1s0.4,1,0.4,1.6
		s-0.1,1.2-0.4,1.6c-0.3,0.5-0.7,0.8-1.3,1L101,48H98.9z M98.4,41.6c-0.3-0.3-0.7-0.4-1.3-0.4h-1.6v2.9h1.6c0.6,0,1-0.1,1.3-0.4
		c0.3-0.3,0.5-0.6,0.5-1.1C98.9,42.2,98.7,41.8,98.4,41.6z"/>
	<path class="st2" d="M114.7,47.6c-0.7-0.4-1.2-0.9-1.6-1.5c-0.4-0.7-0.6-1.4-0.6-2.2s0.2-1.6,0.6-2.2c0.4-0.7,0.9-1.2,1.6-1.5
		c0.7-0.4,1.5-0.6,2.3-0.6c0.7,0,1.4,0.1,2,0.4s1.1,0.6,1.5,1.1l-1.2,1.2c-0.6-0.7-1.3-1-2.1-1c-0.5,0-1,0.1-1.4,0.3
		c-0.4,0.2-0.7,0.5-1,1c-0.2,0.4-0.3,0.9-0.3,1.4c0,0.5,0.1,1,0.3,1.4c0.2,0.4,0.5,0.7,1,1c0.4,0.2,0.9,0.3,1.4,0.3
		c0.8,0,1.5-0.3,2.1-1l1.2,1.2c-0.4,0.5-0.9,0.9-1.5,1.1c-0.6,0.3-1.3,0.4-2,0.4C116.2,48.1,115.4,48,114.7,47.6z"/>
	<path class="st2" d="M126.9,47.6c-0.7-0.4-1.2-0.9-1.6-1.6c-0.4-0.7-0.6-1.4-0.6-2.2c0-0.8,0.2-1.6,0.6-2.2
		c0.4-0.7,0.9-1.2,1.6-1.6c0.7-0.4,1.5-0.6,2.4-0.6s1.7,0.2,2.4,0.6c0.7,0.4,1.2,0.9,1.6,1.6s0.6,1.4,0.6,2.2c0,0.8-0.2,1.6-0.6,2.2
		c-0.4,0.7-0.9,1.2-1.6,1.6c-0.7,0.4-1.5,0.6-2.4,0.6S127.6,48,126.9,47.6z M130.6,46.1c0.4-0.2,0.7-0.5,0.9-1
		c0.2-0.4,0.3-0.9,0.3-1.4c0-0.5-0.1-1-0.3-1.4c-0.2-0.4-0.5-0.7-0.9-1c-0.4-0.2-0.8-0.3-1.3-0.3s-0.9,0.1-1.3,0.3
		c-0.4,0.2-0.7,0.5-0.9,1c-0.2,0.4-0.3,0.9-0.3,1.4c0,0.5,0.1,1,0.3,1.4c0.2,0.4,0.5,0.7,0.9,1c0.4,0.2,0.8,0.3,1.3,0.3
		S130.2,46.4,130.6,46.1z"/>
	<path class="st2" d="M139.9,47.1c-0.7-0.7-1-1.6-1-2.8v-4.7h1.9v4.6c0,1.5,0.6,2.3,1.9,2.3c0.6,0,1.1-0.2,1.4-0.5
		c0.3-0.4,0.5-0.9,0.5-1.7v-4.6h1.9v4.7c0,1.2-0.3,2.2-1,2.8s-1.6,1-2.8,1S140.5,47.8,139.9,47.1z"/>
	<path class="st2" d="M157.4,48l-1.6-2.3h-0.1h-1.7V48H152v-8.4h3.6c0.7,0,1.4,0.1,1.9,0.4c0.5,0.2,1,0.6,1.3,1.1s0.4,1,0.4,1.6
		s-0.2,1.2-0.5,1.6c-0.3,0.5-0.7,0.8-1.3,1l1.9,2.7H157.4z M156.9,41.6c-0.3-0.3-0.7-0.4-1.3-0.4h-1.6v2.9h1.6c0.6,0,1-0.1,1.3-0.4
		c0.3-0.3,0.5-0.6,0.5-1.1C157.3,42.2,157.2,41.8,156.9,41.6z"/>
	<path class="st2" d="M165.3,47.9c-0.6-0.2-1.1-0.4-1.5-0.7l0.7-1.5c0.4,0.3,0.8,0.5,1.3,0.6s1,0.2,1.5,0.2c0.6,0,1-0.1,1.2-0.2
		s0.4-0.4,0.4-0.7c0-0.2-0.1-0.4-0.2-0.5c-0.2-0.1-0.4-0.2-0.6-0.3c-0.2-0.1-0.6-0.2-1-0.3c-0.6-0.2-1.2-0.3-1.6-0.5
		c-0.4-0.2-0.8-0.4-1-0.7s-0.4-0.8-0.4-1.3c0-0.5,0.1-0.9,0.4-1.3c0.3-0.4,0.7-0.7,1.2-0.9c0.5-0.2,1.2-0.3,1.9-0.3
		c0.5,0,1.1,0.1,1.6,0.2s1,0.3,1.3,0.6l-0.6,1.5c-0.8-0.4-1.6-0.7-2.3-0.7c-0.5,0-0.9,0.1-1.2,0.3s-0.4,0.4-0.4,0.7
		c0,0.3,0.1,0.5,0.5,0.6c0.3,0.1,0.8,0.3,1.4,0.4c0.6,0.2,1.2,0.3,1.6,0.5c0.4,0.2,0.8,0.4,1,0.7s0.4,0.8,0.4,1.3
		c0,0.5-0.1,0.9-0.4,1.3c-0.3,0.4-0.7,0.7-1.2,0.9c-0.5,0.2-1.2,0.3-2,0.3C166.5,48.1,165.9,48.1,165.3,47.9z"/>
	<path class="st2" d="M182.2,46.4V48h-6.5v-8.4h6.3v1.6h-4.4V43h3.9v1.5h-3.9v1.9H182.2z"/>
</g>
</svg>
